<svg xmlns="http://www.w3.org/2000/svg" width="37" height="53" viewBox="0 0 37 53">
  <g id="グループ_2240" data-name="グループ 2240" transform="translate(-170 -438)">
    <g id="コンポーネント_19_1" data-name="コンポーネント 19 – 1" transform="translate(170 438)">
      <g id="コンポーネント_24_2" data-name="コンポーネント 24 – 2" transform="translate(6.104 9.639)">
        <path id="パス_16" data-name="パス 16" d="M7.255,72.2a2.167,2.167,0,0,0,2.922,0l10-9.371a2.735,2.735,0,0,0,.652-.931,11.177,11.177,0,0,0,2.845.4c2.132-.01,2.839-.885,3.071-1.407s.4-1.6-1.1-3.032l-.05-.047a12.083,12.083,0,0,0-3.806-2.266c-.282-.109-.563-.207-.84-.3v-.016a2.193,2.193,0,0,0-2.232-2.09l-5.993-.078a3.019,3.019,0,0,0-2.116.807L.6,63.242a1.851,1.851,0,0,0,0,2.737Zm7.711-15.787a1.793,1.793,0,0,1,2.419,0,1.533,1.533,0,0,1,.481,1.366,12.191,12.191,0,0,0,2.281,1.164c.3.114.586.217.862.305L20.976,57l.144.057a10.525,10.525,0,0,1,3.242,1.914L24.4,59c.718.688.8,1.128.735,1.263-.188.419-2.2.792-5.264-.4A12.063,12.063,0,0,1,17.452,58.6c-.022.026-.05.052-.072.078a1.793,1.793,0,0,1-2.419,0A1.53,1.53,0,0,1,14.967,56.417Z" transform="translate(0 -53.064)" fill="#707070"/>
      </g>
      <g id="楕円形_2" data-name="楕円形 2" fill="none" stroke="#707070" stroke-width="1">
        <circle cx="18.5" cy="18.5" r="18.5" stroke="none"/>
        <circle cx="18.5" cy="18.5" r="18" fill="none"/>
      </g>
      <g id="楕円形_3" data-name="楕円形 3" fill="none" stroke="#707070" stroke-width="2">
        <circle cx="18.5" cy="18.5" r="18.5" stroke="none"/>
        <circle cx="18.5" cy="18.5" r="17.5" fill="none"/>
      </g>
    </g>
    <text id="リスト" transform="translate(170 479)" fill="#9ba0aa" font-size="12" font-family="HiraginoSans-W6, Hiragino Sans"><tspan x="0.18" y="11">リスト</tspan></text>
  </g>
</svg>
