<svg xmlns="http://www.w3.org/2000/svg" width="37" height="53" viewBox="0 0 37 53">
  <g id="グループ_2332" data-name="グループ 2332" transform="translate(-270 -438)">
    <path id="パス_807" data-name="パス 807" d="M16.584,1.131A5.047,5.047,0,0,0,14.215.078,6.662,6.662,0,0,0,9.1,1.455,6.46,6.46,0,0,0,4.073.078,5.086,5.086,0,0,0,1.609,1.131C-.665,3.075-.571,5.99,1.8,8.258c2.18,2.106,4.36,4.211,6.445,6.236A1.186,1.186,0,0,0,9,14.736h.19a1.186,1.186,0,0,0,.758-.243l.758-.729C12.6,11.9,14.5,10.12,16.394,8.258,18.764,5.99,18.859,2.994,16.584,1.131Z" transform="translate(279.539 450.296)" fill="#d97d54" stroke="#d97d54" stroke-width="1"/>
    <g id="楕円形_4" data-name="楕円形 4" transform="translate(270 438)" fill="none" stroke="#707070" stroke-width="2">
      <circle cx="18.5" cy="18.5" r="18.5" stroke="none"/>
      <circle cx="18.5" cy="18.5" r="17.5" fill="none"/>
    </g>
    <text id="すき" transform="translate(276 479)" fill="#9ba0aa" font-size="12" font-family="HiraginoSans-W6, Hiragino Sans"><tspan x="0" y="11">すき</tspan></text>
  </g>
</svg>
