<svg xmlns="http://www.w3.org/2000/svg" width="103" height="25" viewBox="0 0 103 25">
  <g id="グループ_2231" data-name="グループ 2231" transform="translate(-14 -207)">
    <g id="長方形_2177" data-name="長方形 2177" transform="translate(14 207)" fill="#fff" stroke="#fff" stroke-width="1.5">
      <rect width="103" height="25" rx="3" stroke="none"/>
      <rect x="0.75" y="0.75" width="101.5" height="23.5" rx="2.25" fill="none"/>
    </g>
    <text id="_" data-name="　 ——" transform="translate(29 215)" fill="#707070" font-size="10" font-family="HiraginoSans-W7, Hiragino Sans"><tspan x="0" y="9">　 ——</tspan></text>
    <line id="線_304" data-name="線 304" y2="10" transform="translate(89.5 215.5)" fill="none" stroke="#707070" stroke-width="1"/>
    <g id="多角形_8" data-name="多角形 8" transform="translate(107 224) rotate(180)" fill="#707070">
      <path d="M 7.864960193634033 5.499995708465576 L 2.135040044784546 5.499995708465576 C 1.840029954910278 5.499995708465576 1.713879942893982 5.279615879058838 1.682250022888184 5.212075710296631 C 1.650609970092773 5.144535541534424 1.56207001209259 4.906545639038086 1.750929951667786 4.679905891418457 L 4.615890026092529 1.241955757141113 C 4.746329784393311 1.085425734519958 4.912539958953857 1.062055706977844 5 1.062055706977844 C 5.087460041046143 1.062055706977844 5.253670215606689 1.085425734519958 5.384109973907471 1.241955757141113 L 8.249070167541504 4.679905891418457 C 8.437930107116699 4.906545639038086 8.349390029907227 5.144535541534424 8.317749977111816 5.212075710296631 C 8.286120414733887 5.279615879058838 8.159970283508301 5.499995708465576 7.864960193634033 5.499995708465576 Z" stroke="none"/>
      <path d="M 5 1.562045574188232 L 2.135043621063232 4.999991416931152 C 2.135044097900391 4.999992847442627 2.135045051574707 4.999994277954102 2.135039806365967 4.999995708465576 L 7.864954471588135 4.999995708465576 C 7.864954948425293 4.999994277954102 7.864955902099609 4.999992847442627 7.864959716796875 4.999995708465576 L 5.001669883728027 1.562215805053711 C 5.001510143280029 1.562175750732422 5.000879764556885 1.562055587768555 5 1.562055587768555 L 5 1.562045574188232 M 5 0.5620532035827637 C 5.284162521362305 0.5620532035827637 5.568325042724609 0.6819906234741211 5.768219947814941 0.9218659400939941 L 8.633179664611816 4.35981559753418 C 9.175950050354004 5.01114559173584 8.712800025939941 5.999995708465576 7.864959716796875 5.999995708465576 L 2.135039806365967 5.999995708465576 C 1.287199974060059 5.999995708465576 0.8240499496459961 5.01114559173584 1.366820335388184 4.35981559753418 L 4.231780052185059 0.9218659400939941 C 4.431674957275391 0.6819906234741211 4.715837478637695 0.5620532035827637 5 0.5620532035827637 Z" stroke="none" fill="#707070"/>
    </g>
  </g>
</svg>
